HIERARCHY
ROOT Hips
{
	OFFSET -0.001795 -0.223333 0.028219
	CHANNELS 6 Xposition Yposition Zposition Zrotation Yrotation Xrotation 
	JOINT LeftUpLeg
	{
		OFFSET 0.069520 -0.091406 -0.006815
		CHANNELS 3 Zrotation Yrotation Xrotation
		JOINT LeftLeg
		{
			OFFSET 0.034277 -0.375199 -0.004496
			CHANNELS 3 Zrotation Yrotation Xrotation
			JOINT LeftFoot
			{
				OFFSET -0.013596 -0.397961 -0.043693
				CHANNELS 3 Zrotation Yrotation Xrotation
				JOINT LeftToe
				{
					OFFSET 0.026358 -0.055791 0.119288
					CHANNELS 3 Zrotation Yrotation Xrotation
					End Site
					{
						OFFSET 0.000000 0.000000 0.000000
					}
				}
			}
		}
	}
	JOINT RightUpLeg
	{
		OFFSET -0.067670 -0.090522 -0.004320
		CHANNELS 3 Zrotation Yrotation Xrotation
		JOINT RightLeg
		{
			OFFSET -0.038290 -0.382569 -0.008850
			CHANNELS 3 Zrotation Yrotation Xrotation
			JOINT RightFoot
			{
				OFFSET 0.015774 -0.398415 -0.042312
				CHANNELS 3 Zrotation Yrotation Xrotation
				JOINT RightToe
				{
					OFFSET -0.025372 -0.048144 0.123348
					CHANNELS 3 Zrotation Yrotation Xrotation
					End Site
					{
						OFFSET 0.000000 0.000000 0.000000
					}
				}
			}
		}
	}
	JOINT Spine
	{
		OFFSET -0.002533 0.108963 -0.026696
		CHANNELS 3 Zrotation Yrotation Xrotation
		JOINT Spine1
		{
			OFFSET 0.005487 0.135180 0.001092
			CHANNELS 3 Zrotation Yrotation Xrotation
			JOINT Spine2
			{
				OFFSET 0.001457 0.052922 0.025425
				CHANNELS 3 Zrotation Yrotation Xrotation
				JOINT Neck
				{
					OFFSET -0.002778 0.213870 -0.042857
					CHANNELS 3 Zrotation Yrotation Xrotation
					JOINT Head
					{
						OFFSET 0.005152 0.064970 0.051349
						CHANNELS 3 Zrotation Yrotation Xrotation
						End Site
						{
							OFFSET 0.000000 0.000000 0.000000
						}
					}
				}
				JOINT LeftShoulder
				{
					OFFSET 0.078845 0.121749 -0.034090
					CHANNELS 3 Zrotation Yrotation Xrotation
					JOINT LeftArm
					{
						OFFSET 0.090977 0.030469 -0.008868
						CHANNELS 3 Zrotation Yrotation Xrotation
						JOINT LeftForeArm
						{
							OFFSET 0.259612 -0.012772 -0.027456
							CHANNELS 3 Zrotation Yrotation Xrotation
							JOINT LeftHand
							{
								OFFSET 0.249234 0.008986 -0.001171
								CHANNELS 3 Zrotation Yrotation Xrotation
								End Site
								{
									OFFSET 0.000000 0.000000 0.000000
								}
							}
						}
					}
				}
				JOINT RightShoulder
				{
					OFFSET -0.081759 0.118833 -0.038615
					CHANNELS 3 Zrotation Yrotation Xrotation
					JOINT RightArm
					{
						OFFSET -0.096012 0.032551 -0.009143
						CHANNELS 3 Zrotation Yrotation Xrotation
						JOINT RightForeArm
						{
							OFFSET -0.253742 -0.013329 -0.021401
							CHANNELS 3 Zrotation Yrotation Xrotation
							JOINT RightHand
							{
								OFFSET -0.255298 0.007772 -0.005559
								CHANNELS 3 Zrotation Yrotation Xrotation
								End Site
								{
									OFFSET 0.000000 0.000000 0.000000
								}
							}
						}
					}
				}
			}
		}
	}
}
MOTION
Frames: 10
Frame Time: 0.050000
0.000000 0.947322 0.000000 -5.813737 9.435087 4.591026 14.471042 -0.307772 -18.562637 -7.075204 0.765481 11.061567 6.207436 15.326860 11.141703 0.000000 0.000000 0.000000 -6.034377 0.630301 -13.599597 1.656392 -0.133952 15.368140 -4.107945 -11.683535 13.724315 0.000000 0.000000 0.000000 -6.458306 -0.309259 30.065053 5.325311 -1.415542 -11.188909 -1.039409 -3.452627 23.640611 -6.200541 5.469953 -12.666453 0.000000 0.000000 0.000000 -14.819278 -21.433817 9.613657 -47.543966 -26.503239 2.858218 -2.309885 -37.592745 2.550238 0.000000 0.000000 0.000000 7.970540 22.573901 9.489179 57.840881 10.754576 -2.298676 17.140468 50.417008 10.709120 0.000000 0.000000 0.000000 
-0.011878 0.949512 0.000360 -5.134169 10.833212 4.346877 14.133829 -0.422153 -17.620137 -6.006638 0.540895 9.917388 5.438744 14.486337 12.350129 0.000000 0.000000 0.000000 -6.524018 0.510769 -12.852178 2.146492 -0.311347 15.027358 -3.873762 -10.942000 12.144940 0.000000 0.000000 0.000000 -5.418196 -0.653574 28.916001 3.965991 -0.872402 -11.524772 -0.312344 -4.519301 24.597814 -8.019314 6.826886 -12.015070 0.000000 0.000000 0.000000 -17.689412 -21.818901 10.365198 -46.419733 -25.838665 2.323328 -4.236203 -40.571444 3.576343 0.000000 0.000000 0.000000 6.993338 23.056491 9.459412 57.698807 8.954999 -3.281534 19.099156 53.562126 12.559699 0.000000 0.000000 0.000000 
-0.022925 0.951247 0.000632 -4.436180 11.305505 3.749580 13.193381 -0.506673 -16.636106 -5.050416 0.364299 10.321204 3.246771 10.956626 11.535282 0.000000 0.000000 0.000000 -6.405582 0.487209 -12.481479 1.703211 -0.222166 15.558730 -3.794725 -10.627928 10.863399 0.000000 0.000000 0.000000 -4.161645 -0.936706 27.571614 4.634086 -1.176973 -10.601012 -1.811518 -3.594753 23.638366 -5.666491 5.233835 -9.527382 0.000000 0.000000 0.000000 -17.836947 -23.095511 10.659558 -45.056981 -25.515349 2.227991 -6.885233 -42.938088 4.681909 0.000000 0.000000 0.000000 7.905732 22.655108 9.617270 56.792062 8.637147 -3.272873 17.940805 53.367564 11.960002 0.000000 0.000000 0.000000 
-0.033519 0.952904 0.000562 -3.840844 12.567135 3.320995 12.690977 -0.583259 -15.366324 -5.186941 0.376074 8.905083 3.305957 11.484158 12.704464 0.000000 0.000000 0.000000 -7.165068 0.333497 -10.947529 2.075635 -0.333566 13.954275 -3.790981 -10.479119 10.787091 0.000000 0.000000 0.000000 -3.745816 -1.020331 26.084698 4.935397 -1.324839 -9.954388 -1.678110 -4.962735 24.382763 -6.518500 5.808026 -9.761615 0.000000 0.000000 0.000000 -16.810849 -22.028234 10.098944 -47.781209 -26.371913 2.787954 -8.615276 -45.640005 5.923499 0.000000 0.000000 0.000000 3.871884 22.872551 8.786235 59.245871 8.336557 -3.484737 17.258617 54.374474 11.917179 0.000000 0.000000 0.000000 
-0.044674 0.954628 0.000542 -2.970896 13.732224 2.349962 11.701443 -0.641392 -13.782127 -4.468581 0.256353 8.258111 2.277190 10.226870 13.309026 0.000000 0.000000 0.000000 -7.655108 0.204517 -9.565696 1.856663 -0.303458 13.400566 -4.720342 -12.217324 11.735016 0.000000 0.000000 0.000000 -3.277391 -1.150076 25.408951 5.076394 -1.391132 -9.596469 -1.889661 -5.403109 24.152770 -5.869353 5.308844 -9.828339 0.000000 0.000000 0.000000 -15.937580 -21.294572 9.498783 -48.613062 -24.756939 2.232299 -14.696490 -50.451378 9.590503 0.000000 0.000000 0.000000 2.892078 22.722309 8.517391 58.370956 7.834289 -3.648270 21.619278 55.757970 14.635429 0.000000 0.000000 0.000000 
-0.057080 0.956618 0.000555 -2.449048 14.179003 1.921977 11.520790 -0.637189 -12.774804 -4.338807 0.248861 7.388636 1.706053 9.665583 14.092949 0.000000 0.000000 0.000000 -7.948396 0.135459 -8.424410 2.476330 -0.445856 12.226673 -4.937567 -12.595006 10.832271 0.000000 0.000000 0.000000 -2.759676 -1.161499 23.887450 4.749910 -1.223136 -9.947476 -1.634689 -5.342937 25.330436 -5.091453 4.779857 -11.171783 0.000000 0.000000 0.000000 -15.396442 -21.564050 9.451557 -47.695351 -23.986147 1.736657 -24.055504 -53.783627 15.196844 0.000000 0.000000 0.000000 1.509147 22.371521 8.120310 57.193534 6.073500 -4.521592 29.293295 58.496046 20.193038 0.000000 0.000000 0.000000 
-0.071381 0.957119 0.000930 -1.961656 14.982990 1.616500 11.491023 -0.651948 -12.258529 -4.442730 0.259171 6.875135 1.406727 9.444795 14.498861 0.000000 0.000000 0.000000 -7.980253 0.089178 -7.521137 2.997617 -0.580120 11.518777 -5.777865 -14.208298 10.312519 0.000000 0.000000 0.000000 -2.451569 -1.130960 22.342691 5.364375 -1.442809 -9.961080 -1.835897 -5.201114 25.009766 -4.768883 4.616732 -12.166838 0.000000 0.000000 0.000000 -14.417076 -20.714039 8.725812 -46.355311 -20.881298 0.454740 -42.512902 -56.725301 26.806728 0.000000 0.000000 0.000000 0.968000 21.688218 7.800328 55.067357 3.414812 -5.509855 43.785932 60.240655 30.209652 0.000000 0.000000 0.000000 
-0.087281 0.957784 0.001941 -1.838674 15.058208 1.298865 12.102717 -0.621453 -11.439940 -4.509664 0.282985 5.973216 1.348499 9.421404 14.687598 0.000000 0.000000 0.000000 -7.141299 0.134347 -6.525341 2.929518 -0.533441 10.418893 -6.352493 -15.385917 10.040665 0.000000 0.000000 0.000000 -2.101655 -1.048103 20.533193 5.587484 -1.461793 -10.637190 -1.614840 -4.893358 26.094624 -3.950955 4.108360 -13.235090 0.000000 0.000000 0.000000 -12.729743 -19.615997 7.914473 -45.050394 -18.951379 -0.430964 -60.539991 -56.224632 37.882875 0.000000 0.000000 0.000000 -1.157462 20.822916 7.071166 53.533542 1.256900 -6.306532 60.070582 59.241467 40.880910 0.000000 0.000000 0.000000 
-0.103911 0.957883 0.003765 -1.495785 15.012134 1.015803 12.814620 -0.595293 -10.556887 -4.475959 0.297591 4.850582 0.922634 9.049612 15.479952 0.000000 0.000000 0.000000 -6.413059 0.153187 -5.451462 2.879368 -0.491859 9.321503 -6.586145 -15.944285 9.317826 0.000000 0.000000 0.000000 -2.230936 -0.884854 18.857823 5.832823 -1.551849 -10.694272 -1.489743 -4.496827 26.100753 -3.393818 3.770282 -13.430278 0.000000 0.000000 0.000000 -11.988793 -18.700833 7.327045 -43.051192 -16.231907 -1.421027 -73.607968 -53.195119 44.160901 0.000000 0.000000 0.000000 -2.497089 19.727808 6.442085 51.077108 -1.274379 -7.011516 74.735723 55.520059 48.622060 0.000000 0.000000 0.000000 
-0.120620 0.958187 0.006317 -1.359418 15.170605 0.790283 13.297180 -0.597266 -9.399237 -4.096255 0.280004 2.974619 0.859190 9.294360 16.442461 0.000000 0.000000 0.000000 -5.410196 0.183621 -4.716706 2.976796 -0.499089 8.485640 -7.054593 -16.930639 9.130066 0.000000 0.000000 0.000000 -1.956155 -0.807360 17.220246 5.803260 -1.478288 -11.267676 -1.298769 -4.272633 26.508764 -3.147355 3.714061 -14.886747 0.000000 0.000000 0.000000 -11.022492 -18.113617 6.906005 -42.280556 -13.565846 -2.345877 -82.848941 -49.747628 47.415824 0.000000 0.000000 0.000000 -3.884822 19.255744 6.006917 49.418866 -3.262251 -7.534107 85.038914 51.506623 52.996457 0.000000 0.000000 0.000000 
